<svg xmlns="http://www.w3.org/2000/svg" width="256" height="64" viewBox="0 0 256 64" fill="none">
  <defs>
    <linearGradient id="g1" x1="0" y1="0" x2="0" y2="64" gradientUnits="userSpaceOnUse">
      <stop offset="0" stop-color="#0B1F3A"/>
      <stop offset="1" stop-color="#16365F"/>
    </linearGradient>
  </defs>
  <!-- Icon -->
  <g transform="translate(8,8)">
    <!-- House base -->
    <path d="M8 28 L24 12 L40 28" stroke="#F5A623" stroke-width="4" fill="none" stroke-linecap="round" stroke-linejoin="round"/>
    <path d="M12 28 V40 H36 V28" stroke="#F5A623" stroke-width="4" fill="none" stroke-linecap="round" stroke-linejoin="round"/>
    <!-- Monogram AB -->
    <path d="M14 38 V22 H22 C25 22 27 24 27 27 C27 30 25 32 22 32 H14" stroke="url(#g1)" stroke-width="4" fill="none" stroke-linecap="round" stroke-linejoin="round"/>
    <path d="M28 22 H36 C38.5 22 40 23.5 40 26 C40 28.5 38.5 30 36 30 H28 V38" stroke="url(#g1)" stroke-width="4" fill="none" stroke-linecap="round" stroke-linejoin="round"/>
  </g>
  <!-- Wordmark -->
  <g fill="#0B1F3A" transform="translate(72,14)">
    <path d="M0 34 L8 0 H16 L24 34 H18 L16.6 27 H7.4 L6 34 H0 Z M8.6 22 H15.4 L12.2 6 H11 L8.6 22 Z"/>
    <path d="M32 34 V0 H44 C50 0 54 4 54 10 C54 16 50 20 44 20 H38 V34 H32 Z M38 14 H44 C47 14 48 12 48 10 C48 8 47 6 44 6 H38 V14 Z"/>
    <path d="M60 34 V0 H66 V28 H78 V34 H60 Z"/>
    <path d="M86 34 V0 H104 C110 0 114 4 114 10 C114 16 110 20 104 20 H92 V34 H86 Z M92 14 H104 C107 14 108 12 108 10 C108 8 107 6 104 6 H92 V14 Z"/>
  </g>
  <!-- Accent underline -->
  <rect x="72" y="50" width="140" height="4" rx="2" fill="#F5A623"/>
</svg>
